<svg width="178" height="119" viewBox="0 0 178 119" fill="none" xmlns="http://www.w3.org/2000/svg">
<path d="M60.375 18.75H51C51 36.8701 65.6924 51.5625 83.8125 51.5625V72.6562C83.8125 73.9453 84.8672 75 86.1562 75H90.8438C92.1328 75 93.1875 73.9453 93.1875 72.6562V51.5625C93.1875 33.4424 78.4951 18.75 60.375 18.75ZM116.625 9.375C104.291 9.375 93.5684 16.1865 87.958 26.25C92.0156 30.6738 95.0186 36.0498 96.6006 42.0117C113.109 40.2979 126 26.3525 126 9.375H116.625Z" fill="black"/>
<path d="M8.62793 92.9854C9.67285 92.9854 10.6104 93.2881 11.4404 93.8936C12.2803 94.499 13.0127 95.1387 13.6377 95.8125L13.7695 93.9668C13.7695 93.6836 13.8477 93.4443 14.0039 93.249C14.1602 93.0439 14.3799 92.9414 14.6631 92.9414C14.9463 92.9414 15.1855 93.0439 15.3809 93.249C15.5859 93.4443 15.6885 93.6836 15.6885 93.9668V107.209C15.6885 107.492 15.5859 107.736 15.3809 107.941C15.1855 108.137 14.9463 108.234 14.6631 108.234C14.3799 108.234 14.1357 108.137 13.9307 107.941C13.7354 107.736 13.6377 107.492 13.6377 107.209V105.539C12.9932 106.242 12.2266 106.877 11.3379 107.443C10.459 108.01 9.53125 108.293 8.55469 108.293C7.54883 108.293 6.61621 108.088 5.75684 107.678C4.89746 107.258 4.14551 106.691 3.50098 105.979C2.85645 105.266 2.35352 104.455 1.99219 103.547C1.64062 102.629 1.46484 101.667 1.46484 100.661C1.46484 99.665 1.64062 98.708 1.99219 97.79C2.35352 96.8623 2.85645 96.042 3.50098 95.3291C4.15527 94.6064 4.91699 94.0352 5.78613 93.6152C6.65527 93.1953 7.60254 92.9854 8.62793 92.9854ZM13.7109 100.573C13.7109 99.626 13.4814 98.7471 13.0225 97.9365C12.5732 97.1162 11.9629 96.4521 11.1914 95.9443C10.4297 95.4365 9.58008 95.1826 8.64258 95.1826C7.69531 95.1826 6.8457 95.4414 6.09375 95.959C5.3418 96.4766 4.74609 97.1553 4.30664 97.9951C3.87695 98.8252 3.66211 99.7139 3.66211 100.661C3.66211 101.599 3.87695 102.482 4.30664 103.312C4.73633 104.143 5.31738 104.816 6.0498 105.334C6.79199 105.842 7.62695 106.096 8.55469 106.096C9.49219 106.096 10.3516 105.837 11.1328 105.319C11.9141 104.792 12.5391 104.108 13.0078 103.269C13.4766 102.419 13.7109 101.521 13.7109 100.573ZM19.2188 88.8105C19.2188 88.5371 19.3213 88.2881 19.5264 88.0635C19.7314 87.8291 19.9951 87.7119 20.3174 87.7119C20.5127 87.7119 20.7031 87.7754 20.8887 87.9023C21.0742 88.0293 21.2158 88.1758 21.3135 88.3418L29.4873 101.716L37.749 88.2539C37.9639 87.9023 38.2764 87.7266 38.6865 87.7266C38.9893 87.7266 39.248 87.834 39.4629 88.0488C39.6777 88.2637 39.7852 88.5225 39.7852 88.8252V107.18C39.7852 107.482 39.6777 107.741 39.4629 107.956C39.248 108.171 38.9893 108.278 38.6865 108.278C38.3838 108.278 38.125 108.171 37.9102 107.956C37.6953 107.741 37.5879 107.482 37.5879 107.18V92.7217L30.4248 104.396C30.21 104.748 29.8975 104.924 29.4873 104.924C29.0771 104.924 28.7646 104.748 28.5498 104.396L21.416 92.7363V107.121C21.416 107.424 21.3086 107.683 21.0938 107.897C20.8789 108.112 20.6201 108.22 20.3174 108.22C20.0146 108.22 19.7559 108.112 19.541 107.897C19.3262 107.683 19.2188 107.424 19.2188 107.121V88.8105ZM43.3008 88.8545C43.3008 88.5518 43.4082 88.293 43.623 88.0781C43.8379 87.8633 44.0967 87.7559 44.3994 87.7559L58.125 87.7705H58.1396C58.4424 87.7705 58.7012 87.8779 58.916 88.0928C59.1309 88.3076 59.2383 88.5664 59.2383 88.8691C59.2383 89.1719 59.1309 89.4307 58.916 89.6455C58.7012 89.8604 58.4424 89.9678 58.1396 89.9678H58.125L45.498 89.9531L45.5127 96.8379C45.542 96.8379 45.5664 96.8379 45.5859 96.8379C45.6152 96.8281 45.6396 96.8232 45.6592 96.8232L56.9238 96.8965C57.2363 96.8965 57.4951 97.0039 57.7002 97.2188C57.915 97.4238 58.0225 97.707 58.0225 98.0684C58.0225 98.3418 57.9102 98.5811 57.6855 98.7861C57.4609 98.9912 57.207 99.0938 56.9238 99.0938H56.9092L45.6445 99.0205H45.5273L45.542 105.832L58.125 105.817H58.1396C58.4424 105.817 58.7012 105.925 58.916 106.14C59.1309 106.354 59.2383 106.613 59.2383 106.916C59.2383 107.219 59.1309 107.478 58.916 107.692C58.7012 107.907 58.4424 108.015 58.1396 108.015H58.125L44.4434 108.029C44.1406 108.029 43.8818 107.922 43.667 107.707C43.4521 107.492 43.3447 107.233 43.3447 106.931L43.3008 88.8545ZM62.4609 108.337C62.2168 108.337 61.9824 108.229 61.7578 108.015C61.543 107.8 61.4355 107.575 61.4355 107.341C61.4355 107.106 61.4697 106.921 61.5381 106.784L69.5801 88.4004C69.6484 88.2539 69.7754 88.1074 69.9609 87.9609C70.1562 87.8145 70.3467 87.7412 70.5322 87.7412C71.0596 87.7412 71.416 87.9609 71.6016 88.4004L79.6582 106.755C79.7168 106.882 79.7461 107.023 79.7461 107.18C79.7461 107.453 79.6533 107.712 79.4678 107.956C79.292 108.19 79.0625 108.308 78.7793 108.308C78.2031 108.308 77.8223 108.083 77.6367 107.634L74.6924 100.91H66.5479L63.5449 107.663C63.3594 108.112 62.998 108.337 62.4609 108.337ZM70.5908 91.5938L67.5 98.7129H73.7256L70.5908 91.5938ZM83.3789 107.985C83.0762 107.985 82.8174 107.878 82.6025 107.663C82.3877 107.448 82.2803 107.189 82.2803 106.887L82.2363 88.8838V88.8691C82.2363 88.5664 82.3438 88.3076 82.5586 88.0928C82.7734 87.8779 83.0322 87.7705 83.335 87.7705C83.6377 87.7705 83.8965 87.8779 84.1113 88.0928C84.3262 88.3076 84.4336 88.5664 84.4336 88.8691V88.8838L84.4775 105.788H95.9473C96.25 105.788 96.5088 105.896 96.7236 106.11C96.9385 106.325 97.0459 106.584 97.0459 106.887C97.0459 107.189 96.9385 107.448 96.7236 107.663C96.5088 107.878 96.25 107.985 95.9473 107.985H83.3789ZM100.84 90.7588C100.42 90.7588 100.049 90.6074 99.7266 90.3047C99.4141 90.002 99.2578 89.6357 99.2578 89.2061C99.2578 88.7764 99.4141 88.4102 99.7266 88.1074C100.049 87.8047 100.42 87.6533 100.84 87.6533C101.27 87.6533 101.641 87.8047 101.953 88.1074C102.266 88.4102 102.422 88.7764 102.422 89.2061C102.422 89.6357 102.266 90.002 101.953 90.3047C101.641 90.6074 101.27 90.7588 100.84 90.7588ZM99.7705 93.9375C99.7705 93.6836 99.8877 93.4639 100.122 93.2783C100.356 93.083 100.576 92.9854 100.781 92.9854C101.123 92.9854 101.406 93.0879 101.631 93.293C101.855 93.498 101.968 93.7666 101.968 94.0986L101.997 107.238C101.997 107.541 101.89 107.8 101.675 108.015C101.46 108.229 101.201 108.337 100.898 108.337C100.596 108.337 100.337 108.225 100.122 108C99.9072 107.785 99.7998 107.526 99.7998 107.224L99.7705 93.9375ZM112.954 92.9707C113.979 92.9707 114.937 93.1758 115.825 93.5859C116.714 93.9961 117.49 94.5625 118.154 95.2852C118.828 95.998 119.351 96.8135 119.722 97.7314C120.103 98.6494 120.293 99.6211 120.293 100.646C120.293 102.004 119.971 103.264 119.326 104.426C118.682 105.588 117.808 106.53 116.704 107.253C115.61 107.966 114.38 108.327 113.013 108.337C111.626 108.337 110.376 107.98 109.263 107.268C108.149 106.555 107.266 105.617 106.611 104.455C105.967 103.283 105.645 102.014 105.645 100.646C105.645 99.6309 105.83 98.6641 106.201 97.7461C106.582 96.8184 107.104 95.998 107.769 95.2852C108.433 94.5625 109.204 93.9961 110.083 93.5859C110.972 93.1758 111.929 92.9707 112.954 92.9707ZM112.954 95.168C111.997 95.168 111.133 95.4219 110.361 95.9297C109.59 96.4375 108.975 97.1064 108.516 97.9365C108.066 98.7568 107.842 99.6504 107.842 100.617C107.842 101.594 108.066 102.502 108.516 103.342C108.965 104.182 109.58 104.86 110.361 105.378C111.143 105.886 112.021 106.14 112.998 106.14C113.965 106.13 114.829 105.871 115.591 105.363C116.362 104.846 116.973 104.172 117.422 103.342C117.871 102.512 118.096 101.613 118.096 100.646C118.096 99.6797 117.866 98.7812 117.407 97.9512C116.958 97.1113 116.343 96.4375 115.562 95.9297C114.79 95.4219 113.921 95.168 112.954 95.168ZM132.144 94.3916C132.144 94.6553 132.056 94.8994 131.88 95.124C131.704 95.3486 131.514 95.4609 131.309 95.4609C131.006 95.4609 130.718 95.3926 130.444 95.2559C130.181 95.1094 129.858 95.0361 129.478 95.0361C128.521 95.0361 127.769 95.2412 127.222 95.6514C126.675 96.0615 126.284 96.5889 126.05 97.2334C125.825 97.8682 125.713 98.542 125.713 99.2549V107.238C125.713 107.541 125.62 107.8 125.435 108.015C125.259 108.239 124.985 108.352 124.614 108.352C124.253 108.352 123.979 108.239 123.794 108.015C123.608 107.8 123.516 107.541 123.516 107.238V94.2451C123.516 93.8838 123.633 93.5908 123.867 93.3662C124.111 93.1416 124.37 93.0293 124.644 93.0293C124.927 93.0293 125.156 93.1416 125.332 93.3662C125.518 93.5811 125.61 93.874 125.61 94.2451L125.742 95.8564C125.879 95.4072 126.133 94.9629 126.504 94.5234C126.885 94.084 127.329 93.7178 127.837 93.4248C128.354 93.1221 128.877 92.9707 129.404 92.9707C130.156 92.9707 130.801 93.0732 131.338 93.2783C131.875 93.4736 132.144 93.8447 132.144 94.3916ZM140.2 92.9854C141.245 92.9854 142.183 93.2881 143.013 93.8936C143.853 94.499 144.585 95.1387 145.21 95.8125L145.342 93.9668C145.342 93.6836 145.42 93.4443 145.576 93.249C145.732 93.0439 145.952 92.9414 146.235 92.9414C146.519 92.9414 146.758 93.0439 146.953 93.249C147.158 93.4443 147.261 93.6836 147.261 93.9668V107.209C147.261 107.492 147.158 107.736 146.953 107.941C146.758 108.137 146.519 108.234 146.235 108.234C145.952 108.234 145.708 108.137 145.503 107.941C145.308 107.736 145.21 107.492 145.21 107.209V105.539C144.565 106.242 143.799 106.877 142.91 107.443C142.031 108.01 141.104 108.293 140.127 108.293C139.121 108.293 138.188 108.088 137.329 107.678C136.47 107.258 135.718 106.691 135.073 105.979C134.429 105.266 133.926 104.455 133.564 103.547C133.213 102.629 133.037 101.667 133.037 100.661C133.037 99.665 133.213 98.708 133.564 97.79C133.926 96.8623 134.429 96.042 135.073 95.3291C135.728 94.6064 136.489 94.0352 137.358 93.6152C138.228 93.1953 139.175 92.9854 140.2 92.9854ZM145.283 100.573C145.283 99.626 145.054 98.7471 144.595 97.9365C144.146 97.1162 143.535 96.4521 142.764 95.9443C142.002 95.4365 141.152 95.1826 140.215 95.1826C139.268 95.1826 138.418 95.4414 137.666 95.959C136.914 96.4766 136.318 97.1553 135.879 97.9951C135.449 98.8252 135.234 99.7139 135.234 100.661C135.234 101.599 135.449 102.482 135.879 103.312C136.309 104.143 136.89 104.816 137.622 105.334C138.364 105.842 139.199 106.096 140.127 106.096C141.064 106.096 141.924 105.837 142.705 105.319C143.486 104.792 144.111 104.108 144.58 103.269C145.049 102.419 145.283 101.521 145.283 100.573ZM153.062 89.9238C153.062 89.6211 153.169 89.3623 153.384 89.1475C153.599 88.9326 153.857 88.8252 154.16 88.8252C154.463 88.8252 154.722 88.9326 154.937 89.1475C155.151 89.3623 155.259 89.6211 155.259 89.9238L155.244 93.2051L158.101 93.2197C158.384 93.2197 158.623 93.3223 158.818 93.5273C159.023 93.7227 159.126 93.9619 159.126 94.2451C159.126 94.5283 159.023 94.7725 158.818 94.9775C158.623 95.1729 158.384 95.2705 158.101 95.2705L155.244 95.2559L155.229 104.396C155.229 104.914 155.308 105.334 155.464 105.656C155.62 105.969 155.938 106.125 156.416 106.125C156.846 106.125 157.197 106.047 157.471 105.891C157.754 105.725 158.076 105.642 158.438 105.642C158.74 105.642 158.999 105.749 159.214 105.964C159.429 106.179 159.536 106.438 159.536 106.74C159.536 107.15 159.36 107.473 159.009 107.707C158.657 107.941 158.242 108.103 157.764 108.19C157.295 108.288 156.875 108.337 156.504 108.337C155.352 108.337 154.482 107.971 153.896 107.238C153.32 106.496 153.032 105.539 153.032 104.367L153.047 95.2705H150.791C150.508 95.2705 150.264 95.1729 150.059 94.9775C149.863 94.7725 149.766 94.5283 149.766 94.2451C149.766 93.9619 149.863 93.7227 150.059 93.5273C150.264 93.3223 150.508 93.2197 150.791 93.2197H153.047L153.062 89.9238ZM169.336 108.293C167.92 108.293 166.636 107.941 165.483 107.238C164.341 106.535 163.433 105.598 162.759 104.426C162.085 103.244 161.748 101.95 161.748 100.544C161.748 99.2061 162.065 97.9707 162.7 96.8379C163.345 95.6953 164.214 94.7773 165.308 94.084C166.401 93.3906 167.622 93.0439 168.97 93.0439C170.21 93.0439 171.348 93.3516 172.383 93.9668C173.428 94.582 174.263 95.4121 174.888 96.457C175.522 97.4922 175.84 98.6445 175.84 99.9141C175.84 100.363 175.757 100.749 175.591 101.071C175.435 101.394 175.142 101.555 174.712 101.555H164.048C164.204 102.365 164.521 103.117 165 103.811C165.488 104.494 166.099 105.046 166.831 105.466C167.573 105.886 168.398 106.096 169.307 106.096C170.078 106.096 170.835 105.925 171.577 105.583C172.319 105.241 172.93 104.772 173.408 104.177C173.623 103.894 173.911 103.752 174.272 103.752C174.575 103.752 174.834 103.859 175.049 104.074C175.264 104.289 175.371 104.548 175.371 104.851C175.371 105.114 175.283 105.354 175.107 105.568C174.404 106.428 173.54 107.097 172.515 107.575C171.499 108.054 170.439 108.293 169.336 108.293ZM173.599 99.3867C173.511 98.625 173.252 97.9316 172.822 97.3066C172.393 96.6719 171.846 96.1689 171.182 95.7979C170.518 95.4268 169.785 95.2412 168.984 95.2412C168.154 95.2412 167.397 95.4316 166.714 95.8125C166.03 96.1934 165.459 96.6963 165 97.3213C164.551 97.9463 164.243 98.6348 164.077 99.3867H173.599Z" fill="black"/>
</svg>
